<?xml version="1.0" encoding="UTF-8"?>
<svg xmlns="http://www.w3.org/2000/svg" xmlns:xlink="http://www.w3.org/1999/xlink" width="227.17" height="23.075" viewBox="0 0 227.17 23.075">
<defs>
<clipPath id="clip-0">
<path clip-rule="nonzero" d="M 0 11 L 227.171875 11 L 227.171875 12 L 0 12 Z M 0 11 "/>
</clipPath>
<clipPath id="clip-1">
<path clip-rule="nonzero" d="M 226 2 L 227.171875 2 L 227.171875 21 L 226 21 Z M 226 2 "/>
</clipPath>
<clipPath id="clip-2">
<path clip-rule="nonzero" d="M 56 0 L 58 0 L 58 23.074219 L 56 23.074219 Z M 56 0 "/>
</clipPath>
<clipPath id="clip-3">
<path clip-rule="nonzero" d="M 184 11 L 227.171875 11 L 227.171875 12 L 184 12 Z M 184 11 "/>
</clipPath>
</defs>
<g clip-path="url(#clip-0)">
<path fill="none" stroke-width="0.3985" stroke-linecap="butt" stroke-linejoin="miter" stroke="rgb(0%, 0%, 0%)" stroke-opacity="1" stroke-miterlimit="10" d="M 56.693219 0.00184375 L 283.466656 0.00184375 " transform="matrix(1, 0, 0, -1, -56.494, 11.537)"/>
</g>
<path fill="none" stroke-width="0.3985" stroke-linecap="butt" stroke-linejoin="miter" stroke="rgb(0%, 0%, 0%)" stroke-opacity="1" stroke-miterlimit="10" d="M 56.693219 8.50575 L 56.693219 -8.505969 " transform="matrix(1, 0, 0, -1, -56.494, 11.537)"/>
<g clip-path="url(#clip-1)">
<path fill="none" stroke-width="0.3985" stroke-linecap="butt" stroke-linejoin="miter" stroke="rgb(0%, 0%, 0%)" stroke-opacity="1" stroke-miterlimit="10" d="M 283.466656 8.50575 L 283.466656 -8.505969 " transform="matrix(1, 0, 0, -1, -56.494, 11.537)"/>
</g>
<path fill="none" stroke-width="0.3985" stroke-linecap="butt" stroke-linejoin="miter" stroke="rgb(0%, 0%, 0%)" stroke-opacity="1" stroke-miterlimit="10" d="M 70.865094 8.50575 L 70.865094 -8.505969 " transform="matrix(1, 0, 0, -1, -56.494, 11.537)"/>
<path fill="none" stroke-width="0.3985" stroke-linecap="butt" stroke-linejoin="miter" stroke="rgb(0%, 0%, 0%)" stroke-opacity="1" stroke-miterlimit="10" d="M 70.865094 8.50575 L 240.947125 8.50575 " transform="matrix(1, 0, 0, -1, -56.494, 11.537)"/>
<path fill="none" stroke-width="0.3985" stroke-linecap="butt" stroke-linejoin="miter" stroke="rgb(0%, 0%, 0%)" stroke-opacity="1" stroke-miterlimit="10" d="M 70.865094 -8.505969 L 240.947125 -8.505969 " transform="matrix(1, 0, 0, -1, -56.494, 11.537)"/>
<path fill="none" stroke-width="0.3985" stroke-linecap="butt" stroke-linejoin="miter" stroke="rgb(0%, 0%, 0%)" stroke-opacity="1" stroke-miterlimit="10" d="M 240.947125 8.50575 L 240.947125 -8.505969 " transform="matrix(1, 0, 0, -1, -56.494, 11.537)"/>
<g clip-path="url(#clip-2)">
<path fill="none" stroke-width="0.3985" stroke-linecap="butt" stroke-linejoin="miter" stroke="rgb(0%, 0%, 0%)" stroke-opacity="1" stroke-miterlimit="10" d="M 113.388531 11.337781 L 113.388531 -11.338 " transform="matrix(1, 0, 0, -1, -56.494, 11.537)"/>
</g>
<path fill="none" stroke-width="0.3985" stroke-linecap="butt" stroke-linejoin="miter" stroke="rgb(0%, 0%, 0%)" stroke-opacity="1" stroke-miterlimit="10" d="M 56.693219 0.00184375 L 70.865094 0.00184375 " transform="matrix(1, 0, 0, -1, -56.494, 11.537)"/>
<g clip-path="url(#clip-3)">
<path fill="none" stroke-width="0.3985" stroke-linecap="butt" stroke-linejoin="miter" stroke="rgb(0%, 0%, 0%)" stroke-opacity="1" stroke-miterlimit="10" d="M 240.947125 0.00184375 L 283.466656 0.00184375 " transform="matrix(1, 0, 0, -1, -56.494, 11.537)"/>
</g>
</svg>
