<?xml version="1.0" encoding="UTF-8"?>
<svg xmlns="http://www.w3.org/2000/svg" xmlns:xlink="http://www.w3.org/1999/xlink" width="113.784" height="127.957" viewBox="0 0 113.784 127.957">
<defs>
<clipPath id="clip-0">
<path clip-rule="nonzero" d="M 0 8 L 113.785156 8 L 113.785156 127.957031 L 0 127.957031 Z M 0 8 "/>
</clipPath>
</defs>
<g clip-path="url(#clip-0)">
<path fill="none" stroke-width="0.3985" stroke-linecap="butt" stroke-linejoin="miter" stroke="rgb(0%, 0%, 0%)" stroke-opacity="1" stroke-miterlimit="10" d="M 56.693937 -0.00140625 C 56.693937 31.311094 31.311125 56.693906 -0.001375 56.693906 C -31.309969 56.693906 -56.692781 31.311094 -56.692781 -0.00140625 C -56.692781 -31.31 -31.309969 -56.692813 -0.001375 -56.692813 C 31.311125 -56.692813 56.693937 -31.31 56.693937 -0.00140625 Z M 56.693937 -0.00140625 " transform="matrix(1, 0, 0, -1, 56.892, 71.065)"/>
</g>
<path fill="none" stroke-width="0.3985" stroke-linecap="butt" stroke-linejoin="miter" stroke="rgb(0%, 0%, 0%)" stroke-opacity="1" stroke-miterlimit="10" d="M -0.001375 70.865781 L -56.692781 -56.692813 L 56.693937 -56.692813 Z M -0.001375 70.865781 " transform="matrix(1, 0, 0, -1, 56.892, 71.065)"/>
</svg>
